<svg xmlns="http://www.w3.org/2000/svg" width="264" height="45" viewBox="0 0 264 45" fill="none"><path d="M63.048 11.304L59.232 18.12L57.024 14.304L54.816 18.12L51 11.304H52.908L54.792 15.012L57.024 11.184L59.136 15.012L61.14 11.304H63.048ZM73.0764 14.652C73.0764 15.684 72.6444 16.524 71.7684 17.16C70.8924 17.796 69.7044 18.12 68.1804 18.12C66.7044 18.12 65.5284 17.796 64.6404 17.16C63.7524 16.512 63.3084 15.672 63.3084 14.652C63.3084 13.632 63.7524 12.792 64.6404 12.156C65.5284 11.508 66.7044 11.184 68.1804 11.184C69.6564 11.184 70.8444 11.508 71.7324 12.156C72.6324 12.792 73.0764 13.632 73.0764 14.652ZM71.2764 14.652C71.2764 14.04 70.9884 13.548 70.4004 13.176C69.8244 12.804 69.0804 12.612 68.1804 12.612C67.2804 12.612 66.5364 12.804 65.9604 13.176C65.3964 13.548 65.1084 14.04 65.1084 14.652C65.1084 15.264 65.3964 15.768 65.9604 16.14C66.5364 16.512 67.2804 16.692 68.1804 16.692C69.0924 16.692 69.8364 16.512 70.4124 16.14C70.9884 15.768 71.2764 15.264 71.2764 14.652ZM82.8064 11.304V18.12L76.3984 14.064V18H74.7064V11.184L81.1144 15.348V11.304H82.8064ZM88.7933 18H84.7493V11.304H88.7933C90.1853 11.304 91.2173 11.508 92.0813 12C92.9573 12.48 93.4373 13.392 93.4373 14.652C93.4373 15.912 92.9573 16.824 92.0813 17.316C91.2173 17.796 90.1853 18 88.7933 18ZM86.4293 12.744V16.56H88.7933C89.3813 16.56 89.7773 16.536 90.3173 16.392C91.1093 16.2 91.5893 15.696 91.6373 14.652C91.6373 13.98 91.3493 13.476 91.0013 13.224C90.8213 13.092 90.5933 12.984 90.3173 12.912C89.7773 12.768 89.3813 12.744 88.7933 12.744H86.4293ZM101.831 16.56V18H95.015V11.304H101.831V12.732H96.707V13.86H100.907V15.3H96.707V16.56H101.831ZM109.152 15.636L110.784 18H108.84L107.352 15.876H105.156V18H103.464V11.304H108.204C109.104 11.304 109.812 11.64 110.16 12.132C110.532 12.612 110.688 13.116 110.688 13.584C110.688 14.352 110.196 15.24 109.152 15.636ZM107.772 12.744H105.156V14.436H107.772C108.624 14.436 108.924 14.016 108.924 13.584C108.924 13.164 108.624 12.744 107.772 12.744ZM118.908 16.572V18H112.464V11.304H114.144V16.572H118.908ZM128.073 18H126.189L125.541 16.956H121.665L121.017 18H119.145L123.609 11.184L128.073 18ZM124.641 15.516L123.609 13.86L122.565 15.516H124.641ZM137.146 11.304V18.12L130.738 14.064V18H129.046V11.184L135.454 15.348V11.304H137.146ZM143.133 18H139.089V11.304H143.133C144.525 11.304 145.557 11.508 146.421 12C147.297 12.48 147.777 13.392 147.777 14.652C147.777 15.912 147.297 16.824 146.421 17.316C145.557 17.796 144.525 18 143.133 18ZM140.769 12.744V16.56H143.133C143.721 16.56 144.117 16.536 144.657 16.392C145.449 16.2 145.929 15.696 145.977 14.652C145.977 13.98 145.689 13.476 145.341 13.224C145.161 13.092 144.933 12.984 144.657 12.912C144.117 12.768 143.721 12.744 143.133 12.744H140.769ZM56.472 28.876H53.664V31H51.972V24.304H56.472C57.372 24.304 58.08 24.64 58.428 25.132C58.8 25.612 58.956 26.116 58.956 26.584C58.956 27.052 58.8 27.556 58.428 28.048C58.08 28.528 57.372 28.876 56.472 28.876ZM56.04 25.744H53.664V27.436H56.04C56.892 27.436 57.192 27.016 57.192 26.584C57.192 26.164 56.892 25.744 56.04 25.744ZM66.1092 28.636L67.7412 31H65.7972L64.3092 28.876H62.1132V31H60.4212V24.304H65.1612C66.0612 24.304 66.7692 24.64 67.1172 25.132C67.4892 25.612 67.6452 26.116 67.6452 26.584C67.6452 27.352 67.1532 28.24 66.1092 28.636ZM64.7292 25.744H62.1132V27.436H64.7292C65.5812 27.436 65.8812 27.016 65.8812 26.584C65.8812 26.164 65.5812 25.744 64.7292 25.744ZM78.7718 27.652C78.7718 28.684 78.3398 29.524 77.4638 30.16C76.5878 30.796 75.3997 31.12 73.8758 31.12C72.3998 31.12 71.2238 30.796 70.3358 30.16C69.4478 29.512 69.0038 28.672 69.0038 27.652C69.0038 26.632 69.4478 25.792 70.3358 25.156C71.2238 24.508 72.3998 24.184 73.8758 24.184C75.3518 24.184 76.5398 24.508 77.4278 25.156C78.3278 25.792 78.7718 26.632 78.7718 27.652ZM76.9718 27.652C76.9718 27.04 76.6838 26.548 76.0958 26.176C75.5198 25.804 74.7758 25.612 73.8758 25.612C72.9758 25.612 72.2318 25.804 71.6558 26.176C71.0918 26.548 70.8038 27.04 70.8038 27.652C70.8038 28.264 71.0918 28.768 71.6558 29.14C72.2318 29.512 72.9758 29.692 73.8758 29.692C74.7878 29.692 75.5318 29.512 76.1078 29.14C76.6838 28.768 76.9718 28.264 76.9718 27.652ZM86.1257 27.808V24.304H87.8057V27.808C87.8057 28.9 87.4577 29.728 86.7617 30.292C86.0777 30.844 85.1657 31.12 84.0257 31.12C82.8977 31.12 81.9857 30.844 81.3017 30.292C80.6177 29.728 80.2697 28.9 80.2697 27.808V24.304H81.9497V27.808C81.9497 29.14 82.8257 29.692 84.0257 29.692C85.2377 29.692 86.1257 29.14 86.1257 27.808ZM93.6566 31H89.6126V24.304H93.6566C95.0486 24.304 96.0806 24.508 96.9446 25C97.8206 25.48 98.3006 26.392 98.3006 27.652C98.3006 28.912 97.8206 29.824 96.9446 30.316C96.0806 30.796 95.0486 31 93.6566 31ZM91.2926 25.744V29.56H93.6566C94.2446 29.56 94.6406 29.536 95.1806 29.392C95.9726 29.2 96.4526 28.696 96.5006 27.652C96.5006 26.98 96.2126 26.476 95.8646 26.224C95.6846 26.092 95.4566 25.984 95.1806 25.912C94.6406 25.768 94.2446 25.744 93.6566 25.744H91.2926ZM106.31 29.572V31H99.8663V24.304H101.546V29.572H106.31ZM110.563 28.552V31H108.883V28.552L105.223 24.304H107.383L109.723 27.232L112.099 24.304H114.259L110.563 28.552ZM128.401 24.184L131.113 31H129.313L127.981 27.316L124.957 31.12L121.945 27.316L120.613 31H118.813L121.525 24.184L124.957 28.528L128.401 24.184ZM140.213 31H138.329L137.681 29.956H133.805L133.157 31H131.285L135.749 24.184L140.213 31ZM136.781 28.516L135.749 26.86L134.705 28.516H136.781ZM145.231 31H141.187V24.304H145.231C146.623 24.304 147.655 24.508 148.519 25C149.395 25.48 149.875 26.392 149.875 27.652C149.875 28.912 149.395 29.824 148.519 30.316C147.655 30.796 146.623 31 145.231 31ZM142.867 25.744V29.56H145.231C145.819 29.56 146.215 29.536 146.755 29.392C147.547 29.2 148.027 28.696 148.075 27.652C148.075 26.98 147.787 26.476 147.439 26.224C147.259 26.092 147.031 25.984 146.755 25.912C146.215 25.768 145.819 25.744 145.231 25.744H142.867ZM158.268 29.56V31H151.452V24.304H158.268V25.732H153.144V26.86H157.344V28.3H153.144V29.56H158.268ZM165.777 24.304V31H164.097V24.304H165.777ZM175.818 24.304V31.12L169.41 27.064V31H167.718V24.184L174.126 28.348V24.304H175.818ZM188.951 31H187.067L186.419 29.956H182.543L181.895 31H180.023L184.487 24.184L188.951 31ZM185.519 28.516L184.487 26.86L183.443 28.516H185.519ZM195.38 27.808V24.304H197.06V27.808C197.06 28.9 196.712 29.728 196.016 30.292C195.332 30.844 194.42 31.12 193.28 31.12C192.152 31.12 191.24 30.844 190.556 30.292C189.872 29.728 189.524 28.9 189.524 27.808V24.304H191.204V27.808C191.204 29.14 192.08 29.692 193.28 29.692C194.492 29.692 195.38 29.14 195.38 27.808ZM205.407 24.496L205.347 25.864C204.543 25.66 203.559 25.552 202.383 25.552C200.943 25.552 200.223 25.756 200.223 26.164C200.223 27.616 205.983 25.696 205.983 28.948C205.983 30.4 204.675 31.12 202.071 31.12C200.823 31.12 199.635 31.024 198.495 30.832L198.555 29.392C199.755 29.632 200.931 29.752 202.095 29.752C203.619 29.752 204.375 29.512 204.375 29.02C204.375 28.252 202.935 28.348 201.495 28.264C201.003 28.216 200.535 28.144 200.103 28.06C199.251 27.868 198.615 27.256 198.615 26.26C198.615 24.88 199.863 24.184 202.347 24.184C203.487 24.184 204.507 24.292 205.407 24.496ZM210.814 25.744V31H209.134V25.744H206.338V24.304H213.634V25.744H210.814ZM220.539 28.636L222.171 31H220.227L218.739 28.876H216.543V31H214.851V24.304H219.591C220.491 24.304 221.199 24.64 221.547 25.132C221.919 25.612 222.075 26.116 222.075 26.584C222.075 27.352 221.583 28.24 220.539 28.636ZM219.159 25.744H216.543V27.436H219.159C220.011 27.436 220.311 27.016 220.311 26.584C220.311 26.164 220.011 25.744 219.159 25.744ZM231.819 31H229.935L229.287 29.956H225.411L224.763 31H222.891L227.355 24.184L231.819 31ZM228.387 28.516L227.355 26.86L226.311 28.516H228.387ZM239.224 29.572V31H232.78V24.304H234.46V29.572H239.224ZM242.113 24.304V31H240.433V24.304H242.113ZM252.01 31H250.126L249.478 29.956H245.602L244.954 31H243.082L247.546 24.184L252.01 31ZM248.578 28.516L247.546 26.86L246.502 28.516H248.578Z" fill="#1D1D1B"></path><path d="M39.2958 20.5854L32.1208 3.31705C31.9636 2.99248 31.716 2.81432 31.385 2.78711C31.0443 2.7591 30.7226 2.90877 30.575 3.15212L27.3897 7.72889L26.5032 6.52664L26.9699 5.14443C27.0467 4.91845 27.0228 4.66681 26.9045 4.45532C26.8048 4.27498 26.6079 4.09457 26.3963 4.00544L23.5481 3.10771C23.3437 3.01917 23.1135 3.06038 22.9265 3.1082L19.3464 4.39898C19.2527 4.43676 19.1162 4.49239 19.0165 4.62613L18.6151 5.02168L15.7548 4.11624C15.4416 4.02609 15.0814 4.12559 14.8925 4.33899L4.26483 14.3437C4.00244 14.6231 3.93103 14.9841 4.07222 15.3406L8.8602 26.6471C9.06231 27.0843 9.52623 27.294 9.96216 27.1461L19.7197 23.7897L29.0392 31.3339C29.1946 31.4572 29.3618 31.532 29.5098 31.5441C29.7823 31.5665 30.0747 31.4483 30.2516 31.248L39.1549 21.545C39.3492 21.3248 39.459 20.926 39.2958 20.5854ZM24.7385 7.14375L26.6404 9.69041C26.782 9.91541 27.0275 10.0436 27.3682 10.0717C27.6685 10.0963 27.9537 9.94702 28.099 9.70104L31.0724 5.45635L37.4236 20.7465L29.5389 29.4282L20.4593 22.0886C20.3319 21.9884 20.2001 21.8964 19.9893 21.8791C19.8926 21.8711 19.7603 21.8602 19.6264 21.9146L10.1842 25.1321L5.95624 15.1985L15.6924 5.94711L18.5569 6.85381C18.8462 6.93773 19.1958 6.85628 19.4644 6.62776L20.1452 5.94597L23.2298 4.81041L24.9379 5.3339L24.6155 6.31163C24.534 6.59521 24.573 6.88382 24.7385 7.14375Z" fill="#DB7627"></path><path d="M31.1217 32.5485L28.4248 32.3268C28.2691 32.314 28.1054 32.38 27.9794 32.4873C27.8519 32.5959 27.7981 32.7886 27.7854 32.9449L27.9158 35.2076C27.936 35.446 28.115 35.6578 28.3429 35.7559L29.9983 36.2083L30.1162 36.218C30.3899 36.2405 30.6369 36.1035 30.6987 35.832L31.6097 33.3387C31.665 33.1462 31.6386 32.9851 31.5334 32.8191C31.4676 32.6564 31.3183 32.5646 31.1217 32.5485ZM29.8928 35.2516L28.8102 34.929L28.7169 33.221L30.5722 33.3735L29.8928 35.2516Z" fill="#DB7627"></path></svg>